<svg width="38" height="38" viewBox="0 0 38 38" fill="none" xmlns="http://www.w3.org/2000/svg">
<g clip-path="url(#clip0_43_340)">
<path fill-rule="evenodd" clip-rule="evenodd" d="M19.0157 0C8.50052 0 0 8.56319 0 19.157C0 27.6252 5.44657 34.7934 13.0024 37.3304C13.9471 37.5212 14.2931 36.9182 14.2931 36.4111C14.2931 35.9669 14.262 34.4446 14.262 32.8585C8.97227 34.0005 7.87074 30.5749 7.87074 30.5749C7.02064 28.3547 5.76108 27.784 5.76108 27.784C4.02976 26.6105 5.88719 26.6105 5.88719 26.6105C7.80768 26.7374 8.81541 28.5769 8.81541 28.5769C10.5152 31.4946 13.2543 30.6702 14.3562 30.1627C14.5134 28.9257 15.0175 28.0693 15.5527 27.5937C11.3338 27.1496 6.89492 25.5004 6.89492 18.1419C6.89492 16.0486 7.65004 14.3359 8.84655 13.004C8.65777 12.5283 7.99646 10.5615 9.03572 7.92912C9.03572 7.92912 10.6413 7.42156 14.2616 9.89554C15.8116 9.4762 17.41 9.26288 19.0157 9.26108C20.6213 9.26108 22.2581 9.48334 23.7695 9.89554C27.3901 7.42156 28.9957 7.92912 28.9957 7.92912C30.035 10.5615 29.3733 12.5283 29.1845 13.004C30.4125 14.3359 31.1365 16.0486 31.1365 18.1419C31.1365 25.5004 26.6977 27.1177 22.4472 27.5937C23.1401 28.1962 23.7379 29.3379 23.7379 31.1459C23.7379 33.7148 23.7068 35.7766 23.7068 36.4107C23.7068 36.9182 24.0532 37.5212 24.9975 37.3308C32.5533 34.793 37.9999 27.6252 37.9999 19.157C38.0311 8.56319 29.4994 0 19.0157 0Z" fill="white"/>
</g>
<defs>
<clipPath id="clip0_43_340">
<rect width="38" height="38" fill="white"/>
</clipPath>
</defs>
</svg>
