<svg width="38" height="38" viewBox="0 0 38 38" fill="none" xmlns="http://www.w3.org/2000/svg">
<g clip-path="url(#clip0_43_336)">
<path d="M35.1949 0H2.80514C2.06117 0 1.34767 0.295541 0.821607 0.821607C0.295541 1.34767 0 2.06117 0 2.80514V35.1949C0 35.9388 0.295541 36.6523 0.821607 37.1784C1.34767 37.7045 2.06117 38 2.80514 38H35.1949C35.9388 38 36.6523 37.7045 37.1784 37.1784C37.7045 36.6523 38 35.9388 38 35.1949V2.80514C38 2.06117 37.7045 1.34767 37.1784 0.821607C36.6523 0.295541 35.9388 0 35.1949 0ZM11.3261 32.3713H5.61292V14.2236H11.3261V32.3713ZM8.46556 11.7088C7.81749 11.7051 7.18503 11.5096 6.648 11.1468C6.11096 10.7841 5.69341 10.2703 5.44806 9.67051C5.2027 9.07067 5.14053 8.4116 5.26938 7.77647C5.39824 7.14134 5.71235 6.5586 6.17208 6.10182C6.63181 5.64504 7.21654 5.33467 7.85249 5.2099C8.48844 5.08512 9.1471 5.15152 9.74534 5.40073C10.3436 5.64993 10.8546 6.07076 11.2139 6.61012C11.5732 7.14947 11.7647 7.78318 11.7642 8.43125C11.7703 8.86514 11.689 9.29581 11.5251 9.69761C11.3612 10.0994 11.1181 10.4641 10.8103 10.7699C10.5025 11.0758 10.1363 11.3165 9.73342 11.4778C9.33058 11.6391 8.89939 11.7176 8.46556 11.7088ZM32.3844 32.3871H26.6739V22.4728C26.6739 19.5489 25.431 18.6464 23.8265 18.6464C22.1324 18.6464 20.4699 19.9236 20.4699 22.5467V32.3871H14.7567V14.2368H20.2508V16.7517H20.3247C20.8763 15.6354 22.8079 13.7275 25.7556 13.7275C28.9433 13.7275 32.3871 15.6196 32.3871 21.1613L32.3844 32.3871Z" fill="white"/>
</g>
<defs>
<clipPath id="clip0_43_336">
<rect width="38" height="38" fill="white"/>
</clipPath>
</defs>
</svg>
