<svg width="190" height="26" viewBox="0 0 190 26" fill="none" xmlns="http://www.w3.org/2000/svg">
<path d="M10.176 25.512C8.29867 25.512 6.48533 25.2987 4.736 24.872C2.98667 24.4453 1.54667 23.8907 0.416 23.208L2.848 17.704C3.91467 18.3227 5.09867 18.824 6.4 19.208C7.72267 19.5707 9.00267 19.752 10.24 19.752C10.9653 19.752 11.5307 19.7093 11.936 19.624C12.3627 19.5173 12.672 19.3787 12.864 19.208C13.056 19.016 13.152 18.792 13.152 18.536C13.152 18.1307 12.928 17.8107 12.48 17.576C12.032 17.3413 11.4347 17.1493 10.688 17C9.96267 16.8293 9.16267 16.6587 8.288 16.488C7.41333 16.296 6.528 16.0507 5.632 15.752C4.75733 15.4533 3.94667 15.0587 3.2 14.568C2.47467 14.0773 1.888 13.4373 1.44 12.648C0.992 11.8373 0.768 10.8347 0.768 9.64C0.768 8.25333 1.152 6.99467 1.92 5.864C2.70933 4.712 3.872 3.79467 5.408 3.112C6.96533 2.42933 8.896 2.088 11.2 2.088C12.7147 2.088 14.208 2.248 15.68 2.568C17.152 2.888 18.4747 3.37867 19.648 4.04L17.376 9.512C16.2667 8.95733 15.1893 8.54133 14.144 8.264C13.12 7.98667 12.1173 7.848 11.136 7.848C10.4107 7.848 9.83467 7.912 9.408 8.04C8.98133 8.168 8.672 8.33867 8.48 8.552C8.30933 8.76533 8.224 9 8.224 9.256C8.224 9.64 8.448 9.94933 8.896 10.184C9.344 10.3973 9.93067 10.5787 10.656 10.728C11.4027 10.8773 12.2133 11.0373 13.088 11.208C13.984 11.3787 14.8693 11.6133 15.744 11.912C16.6187 12.2107 17.4187 12.6053 18.144 13.096C18.8907 13.5867 19.488 14.2267 19.936 15.016C20.384 15.8053 20.608 16.7867 20.608 17.96C20.608 19.3253 20.2133 20.584 19.424 21.736C18.656 22.8667 17.504 23.784 15.968 24.488C14.432 25.1707 12.5013 25.512 10.176 25.512ZM45.1593 7.176C46.4819 7.176 47.6659 7.45333 48.7113 8.008C49.7779 8.54133 50.6099 9.384 51.2073 10.536C51.8259 11.688 52.1353 13.1813 52.1353 15.016V25H44.9033V16.264C44.9033 15.176 44.7219 14.408 44.3593 13.96C43.9966 13.4907 43.5273 13.256 42.9513 13.256C42.5246 13.256 42.1406 13.3627 41.7993 13.576C41.4579 13.7893 41.1806 14.1307 40.9673 14.6C40.7753 15.048 40.6793 15.6667 40.6793 16.456V25H33.4473V16.264C33.4473 15.176 33.2766 14.408 32.9353 13.96C32.5939 13.4907 32.1139 13.256 31.4953 13.256C31.0686 13.256 30.6846 13.3627 30.3433 13.576C30.0019 13.7893 29.7246 14.1307 29.5113 14.6C29.3193 15.048 29.2233 15.6667 29.2233 16.456V25H21.9913V7.496H28.8713V12.52L27.4633 11.112C28.1246 9.78933 29.0099 8.808 30.1193 8.168C31.2286 7.50667 32.4659 7.176 33.8313 7.176C35.3673 7.176 36.7219 7.58133 37.8953 8.392C39.0899 9.18133 39.8899 10.44 40.2953 12.168L38.0873 11.816C38.7273 10.3653 39.6553 9.23467 40.8713 8.424C42.1086 7.592 43.5379 7.176 45.1593 7.176ZM65.2245 25V21.896L64.7125 21.064V15.176C64.7125 14.3227 64.4458 13.672 63.9125 13.224C63.4005 12.776 62.5578 12.552 61.3845 12.552C60.5952 12.552 59.7952 12.68 58.9845 12.936C58.1738 13.1707 57.4805 13.5013 56.9045 13.928L54.6005 9.16C55.6245 8.52 56.8512 8.02933 58.2805 7.688C59.7098 7.34667 61.1072 7.176 62.4725 7.176C65.4805 7.176 67.8058 7.848 69.4485 9.192C71.1125 10.536 71.9445 12.6693 71.9445 15.592V25H65.2245ZM60.2645 25.32C58.8352 25.32 57.6405 25.0747 56.6805 24.584C55.7205 24.0933 54.9952 23.4427 54.5045 22.632C54.0138 21.8 53.7685 20.8827 53.7685 19.88C53.7685 18.7493 54.0565 17.7893 54.6325 17C55.2085 16.2107 56.0832 15.6133 57.2565 15.208C58.4512 14.8027 59.9552 14.6 61.7685 14.6H65.4165V18.088H62.9205C62.1525 18.088 61.5872 18.216 61.2245 18.472C60.8832 18.7067 60.7125 19.0693 60.7125 19.56C60.7125 19.9653 60.8618 20.3067 61.1605 20.584C61.4805 20.84 61.9072 20.968 62.4405 20.968C62.9312 20.968 63.3792 20.84 63.7845 20.584C64.2112 20.3067 64.5205 19.88 64.7125 19.304L65.6405 21.448C65.3632 22.7493 64.7765 23.72 63.8805 24.36C62.9845 25 61.7792 25.32 60.2645 25.32ZM74.43 25V7.496H81.31V12.776L80.19 11.272C80.7233 9.90667 81.5767 8.88267 82.75 8.2C83.9233 7.51733 85.3313 7.176 86.974 7.176V13.576C86.654 13.5333 86.366 13.5013 86.11 13.48C85.8753 13.4587 85.63 13.448 85.374 13.448C84.286 13.448 83.39 13.736 82.686 14.312C82.0033 14.8667 81.662 15.8373 81.662 17.224V25H74.43ZM97.3005 25.32C94.8898 25.32 93.0125 24.744 91.6685 23.592C90.3245 22.4187 89.6525 20.6267 89.6525 18.216V3.56H96.8845V18.152C96.8845 18.6853 97.0232 19.1013 97.3005 19.4C97.5992 19.6987 97.9618 19.848 98.3885 19.848C99.0072 19.848 99.5512 19.688 100.021 19.368L101.749 24.392C101.194 24.712 100.522 24.9467 99.7325 25.096C98.9645 25.2453 98.1538 25.32 97.3005 25.32ZM87.2525 13.736V8.456H100.469V13.736H87.2525ZM111.871 25.32C109.865 25.32 108.084 24.936 106.527 24.168C104.969 23.4 103.743 22.3333 102.847 20.968C101.972 19.5813 101.535 18.0027 101.535 16.232C101.535 14.4613 101.972 12.8933 102.847 11.528C103.743 10.1627 104.969 9.096 106.527 8.328C108.084 7.56 109.865 7.176 111.871 7.176C114.004 7.176 115.828 7.63467 117.343 8.552C118.857 9.46933 119.903 10.7387 120.479 12.36L114.879 15.112C114.516 14.3013 114.068 13.7147 113.535 13.352C113.023 12.9893 112.457 12.808 111.839 12.808C111.305 12.808 110.804 12.936 110.335 13.192C109.887 13.448 109.524 13.832 109.247 14.344C108.991 14.8347 108.863 15.464 108.863 16.232C108.863 17 108.991 17.64 109.247 18.152C109.524 18.664 109.887 19.048 110.335 19.304C110.804 19.56 111.305 19.688 111.839 19.688C112.457 19.688 113.023 19.5067 113.535 19.144C114.068 18.7813 114.516 18.1947 114.879 17.384L120.479 20.136C119.903 21.7573 118.857 23.0267 117.343 23.944C115.828 24.8613 114.004 25.32 111.871 25.32ZM121.51 25V7.496H128.39V12.776L127.27 11.272C127.803 9.90667 128.657 8.88267 129.83 8.2C131.003 7.51733 132.411 7.176 134.054 7.176V13.576C133.734 13.5333 133.446 13.5013 133.19 13.48C132.955 13.4587 132.71 13.448 132.454 13.448C131.366 13.448 130.47 13.736 129.766 14.312C129.083 14.8667 128.742 15.8373 128.742 17.224V25H121.51ZM145.087 25V21.896L144.575 21.064V15.176C144.575 14.3227 144.308 13.672 143.775 13.224C143.263 12.776 142.42 12.552 141.247 12.552C140.458 12.552 139.658 12.68 138.847 12.936C138.036 13.1707 137.343 13.5013 136.767 13.928L134.463 9.16C135.487 8.52 136.714 8.02933 138.143 7.688C139.572 7.34667 140.97 7.176 142.335 7.176C145.343 7.176 147.668 7.848 149.311 9.192C150.975 10.536 151.807 12.6693 151.807 15.592V25H145.087ZM140.127 25.32C138.698 25.32 137.503 25.0747 136.543 24.584C135.583 24.0933 134.858 23.4427 134.367 22.632C133.876 21.8 133.631 20.8827 133.631 19.88C133.631 18.7493 133.919 17.7893 134.495 17C135.071 16.2107 135.946 15.6133 137.119 15.208C138.314 14.8027 139.818 14.6 141.631 14.6H145.279V18.088H142.783C142.015 18.088 141.45 18.216 141.087 18.472C140.746 18.7067 140.575 19.0693 140.575 19.56C140.575 19.9653 140.724 20.3067 141.023 20.584C141.343 20.84 141.77 20.968 142.303 20.968C142.794 20.968 143.242 20.84 143.647 20.584C144.074 20.3067 144.383 19.88 144.575 19.304L145.503 21.448C145.226 22.7493 144.639 23.72 143.743 24.36C142.847 25 141.642 25.32 140.127 25.32ZM155.093 25V8.36C155.093 6.09867 155.765 4.296 157.109 2.952C158.474 1.608 160.405 0.935999 162.901 0.935999C163.669 0.935999 164.437 1.01067 165.205 1.16C165.994 1.288 166.655 1.50133 167.189 1.8L165.461 6.824C165.226 6.71733 164.97 6.62133 164.693 6.536C164.415 6.45067 164.127 6.408 163.829 6.408C163.317 6.408 162.901 6.568 162.581 6.888C162.261 7.208 162.101 7.72 162.101 8.424V9.256L162.325 12.232V25H155.093ZM152.693 13.736V8.456H165.909V13.736H152.693ZM175.726 25.32C173.315 25.32 171.438 24.744 170.094 23.592C168.75 22.4187 168.078 20.6267 168.078 18.216V3.56H175.31V18.152C175.31 18.6853 175.448 19.1013 175.726 19.4C176.024 19.6987 176.387 19.848 176.814 19.848C177.432 19.848 177.976 19.688 178.446 19.368L180.174 24.392C179.619 24.712 178.947 24.9467 178.158 25.096C177.39 25.2453 176.579 25.32 175.726 25.32ZM165.678 13.736V8.456H178.894V13.736H165.678Z" fill="white"/>
<path d="M184.933 25.32C183.738 25.32 182.735 24.936 181.925 24.168C181.114 23.3787 180.709 22.376 180.709 21.16C180.709 19.9227 181.114 18.9307 181.925 18.184C182.735 17.4373 183.738 17.064 184.933 17.064C186.127 17.064 187.13 17.4373 187.941 18.184C188.751 18.9307 189.157 19.9227 189.157 21.16C189.157 22.376 188.751 23.3787 187.941 24.168C187.13 24.936 186.127 25.32 184.933 25.32Z" fill="black"/>
</svg>
