<svg width="38" height="38" viewBox="0 0 38 38" fill="none" xmlns="http://www.w3.org/2000/svg">
<path d="M0 38L2.67108 28.2419C1.02283 25.3856 0.15675 22.1477 0.158333 18.8274C0.163083 8.44708 8.61015 0 18.9889 0C24.0254 0.00158333 28.7533 1.96333 32.3094 5.52267C35.864 9.082 37.821 13.813 37.8194 18.8448C37.8147 29.2268 29.3676 37.6738 18.9889 37.6738C15.838 37.6723 12.7331 36.8822 9.98289 35.3812L0 38ZM10.4452 31.9723C13.0989 33.5477 15.6322 34.4913 18.9825 34.4929C27.6085 34.4929 34.6353 27.4724 34.6401 18.8417C34.6433 10.1935 27.6497 3.1825 18.9952 3.17933C10.3629 3.17933 3.34083 10.1998 3.33766 18.829C3.33608 22.3519 4.36841 24.9897 6.10215 27.7495L4.52041 33.5255L10.4452 31.9723ZM28.4746 23.3209C28.3574 23.1246 28.0439 23.0074 27.5721 22.7715C27.1019 22.5356 24.7886 21.3972 24.3564 21.2404C23.9257 21.0837 23.6122 21.0045 23.2971 21.4763C22.9836 21.9466 22.0811 23.0074 21.8072 23.3209C21.5333 23.6344 21.2578 23.674 20.7875 23.4381C20.3173 23.2022 18.8005 22.7066 17.0034 21.1027C15.6053 19.855 14.6601 18.3144 14.3861 17.8426C14.1122 17.3723 14.3576 17.1174 14.592 16.8831C14.8041 16.6725 15.0622 16.3337 15.2981 16.0582C15.5372 15.7858 15.6148 15.5895 15.7731 15.2744C15.9299 14.9609 15.8523 14.6854 15.7336 14.4495C15.6148 14.2152 14.6743 11.8988 14.2832 10.9567C13.9001 10.0399 13.5121 10.1634 13.224 10.1492L12.3215 10.1333C12.008 10.1333 11.4981 10.2505 11.0675 10.7223C10.6368 11.1942 9.42081 12.331 9.42081 14.6474C9.42081 16.9638 11.1071 19.2011 11.3414 19.5146C11.5773 19.8281 14.6585 24.5813 19.3784 26.619C20.501 27.1035 21.3781 27.3932 22.0605 27.6102C23.1879 27.968 24.2139 27.9173 25.0245 27.797C25.9286 27.6624 27.808 26.6586 28.2007 25.5597C28.5934 24.4593 28.5934 23.5173 28.4746 23.3209Z" fill="white"/>
</svg>
